# xmcd
# Copyright (C) 1995-1998 Ti Kan
#
# Track frame offsets:
#       150
#       15799
#       29330
#       47124
#       60576
#       77086
#       95325
#       113147
#       133254
#       146827
#       169086
#       187147
#
# Disc length: 2682 seconds
#
# Revision: 2
# Processed by: cddbd v1.5.2PL0 Copyright (c) Steve Scherf et al.
# Submitted via: CD-Transfer v1.0
#
DISCID=a00a780c
DTITLE=Züriwest - Haubi Songs
DYEAR=2007
DGENRE=
TTITLE0=05:55
TTITLE1=Fische Versänke
TTITLE2=Ei Einzigi Sekunde
TTITLE3=Haubi Songs
TTITLE4=Johnny and Mary
TTITLE5=Schiff Im Sand
TTITLE6=26 Schtung Oder Zwe
TTITLE7=Vo Tier U Vo Berüehmte Mönsche
TTITLE8=Kireg and Frieda
TTITLE9=Es Blatt Im Wind
TTITLE10=Schpinnele Okay
TTITLE11=Und
EXTD=
EXTT0=
EXTT1=
EXTT2=
EXTT3=
EXTT4=
EXTT5=
EXTT6=
EXTT7=
EXTT8=
EXTT9=
EXTT10=
EXTT11=
PLAYORDER=
